<svg xmlns="http://www.w3.org/2000/svg" viewBox="0 0 256 256" fill="none">
  <defs>
    <linearGradient id="bg" x1="36" y1="28" x2="220" y2="228" gradientUnits="userSpaceOnUse">
      <stop stop-color="#FFF8FC"/>
      <stop offset="1" stop-color="#F4F7FF"/>
    </linearGradient>
    <linearGradient id="rack" x1="70" y1="56" x2="186" y2="202" gradientUnits="userSpaceOnUse">
      <stop stop-color="#0F172A"/>
      <stop offset="1" stop-color="#1E293B"/>
    </linearGradient>
    <linearGradient id="accent" x1="84" y1="76" x2="176" y2="176" gradientUnits="userSpaceOnUse">
      <stop stop-color="#B5179E"/>
      <stop offset="1" stop-color="#7B2CBF"/>
    </linearGradient>
    <filter id="shadow" x="-20%" y="-20%" width="140%" height="140%">
      <feDropShadow dx="0" dy="12" stdDeviation="14" flood-color="#0F172A" flood-opacity=".12"/>
    </filter>
  </defs>
  <rect width="256" height="256" rx="34" fill="url(#bg)"/>
  <circle cx="58" cy="56" r="22" fill="#E9D5FF"/>
  <circle cx="210" cy="56" r="16" fill="#FCE7F3"/>
  <circle cx="204" cy="206" r="28" fill="#DBEAFE"/>
  <g filter="url(#shadow)">
    <rect x="76" y="52" width="104" height="30" rx="15" fill="url(#rack)"/>
    <rect x="68" y="84" width="120" height="38" rx="14" fill="url(#rack)"/>
    <rect x="60" y="126" width="136" height="42" rx="16" fill="url(#rack)"/>
    <rect x="68" y="172" width="120" height="28" rx="14" fill="url(#rack)"/>
    <rect x="84" y="66" width="72" height="6" rx="3" fill="#E879F9"/>
    <rect x="82" y="98" width="76" height="8" rx="4" fill="#22D3EE" opacity=".95"/>
    <rect x="82" y="110" width="46" height="8" rx="4" fill="#CBD5E1" opacity=".9"/>
    <rect x="76" y="141" width="104" height="8" rx="4" fill="#A78BFA" opacity=".95"/>
    <rect x="76" y="152" width="70" height="8" rx="4" fill="#F9A8D4" opacity=".9"/>
    <rect x="82" y="184" width="78" height="7" rx="3.5" fill="#22C55E" opacity=".95"/>
    <circle cx="170" cy="100" r="7" fill="#B5179E"/>
    <circle cx="170" cy="150" r="7" fill="#60A5FA"/>
    <circle cx="170" cy="188" r="7" fill="#34D399"/>
    <path d="M128 100v34" stroke="url(#accent)" stroke-width="4" stroke-linecap="round"/>
    <path d="M128 150v32" stroke="url(#accent)" stroke-width="4" stroke-linecap="round"/>
    <path d="M128 65c26 0 38 10 46 22" stroke="#F472B6" stroke-width="5" stroke-linecap="round"/>
    <path d="M126 65c-26 0-38 10-46 22" stroke="#60A5FA" stroke-width="5" stroke-linecap="round"/>
    <path d="M82 210c22-16 70-16 92 0" stroke="#E2E8F0" stroke-width="6" stroke-linecap="round"/>
  </g>
</svg>
