<svg xmlns="http://www.w3.org/2000/svg" viewBox="0 0 256 256" fill="none">
  <defs>
    <linearGradient id="bg" x1="40" y1="30" x2="216" y2="226" gradientUnits="userSpaceOnUse">
      <stop stop-color="#FFF8FC"/>
      <stop offset="1" stop-color="#F5F3FF"/>
    </linearGradient>
    <linearGradient id="cloud" x1="68" y1="72" x2="188" y2="176" gradientUnits="userSpaceOnUse">
      <stop stop-color="#FFFFFF"/>
      <stop offset="1" stop-color="#E2E8F0"/>
    </linearGradient>
    <linearGradient id="accent" x1="86" y1="82" x2="174" y2="166" gradientUnits="userSpaceOnUse">
      <stop stop-color="#B5179E"/>
      <stop offset="1" stop-color="#7B2CBF"/>
    </linearGradient>
    <filter id="shadow" x="-20%" y="-20%" width="140%" height="140%">
      <feDropShadow dx="0" dy="14" stdDeviation="14" flood-color="#7B2CBF" flood-opacity=".12"/>
    </filter>
  </defs>
  <rect width="256" height="256" rx="34" fill="url(#bg)"/>
  <circle cx="62" cy="58" r="24" fill="#E9D5FF"/>
  <circle cx="210" cy="56" r="16" fill="#FCE7F3"/>
  <circle cx="204" cy="206" r="28" fill="#DBEAFE"/>
  <g filter="url(#shadow)">
    <path d="M78 154h96c18 0 32-12 32-28 0-14-11-26-26-28-5-20-22-34-43-34-22 0-40 15-44 35-14 2-24 13-24 27 0 15 13 28 29 28Z" fill="url(#cloud)"/>
    <path d="M92 154h68" stroke="#CBD5E1" stroke-width="8" stroke-linecap="round"/>
    <circle cx="108" cy="146" r="9" fill="#B5179E"/>
    <circle cx="156" cy="146" r="9" fill="#22D3EE"/>
    <circle cx="190" cy="110" r="8" fill="#7B2CBF"/>
    <circle cx="76" cy="114" r="8" fill="#60A5FA"/>
    <path d="M108 146l48-36" stroke="url(#accent)" stroke-width="5" stroke-linecap="round"/>
    <path d="M156 146l34-36" stroke="url(#accent)" stroke-width="5" stroke-linecap="round"/>
    <path d="M108 146l54 0" stroke="url(#accent)" stroke-width="5" stroke-linecap="round"/>
    <path d="M166 154c18 0 34 14 34 32" stroke="#F472B6" stroke-width="6" stroke-linecap="round"/>
    <path d="M88 154c0 18-14 32-32 32" stroke="#60A5FA" stroke-width="6" stroke-linecap="round"/>
    <rect x="96" y="178" width="64" height="12" rx="6" fill="#0F172A" opacity=".92"/>
    <path d="M104 184h48" stroke="#22D3EE" stroke-width="4" stroke-linecap="round"/>
  </g>
</svg>
