<svg xmlns="http://www.w3.org/2000/svg" viewBox="0 0 256 256" fill="none">
  <defs>
    <linearGradient id="bg" x1="34" y1="28" x2="220" y2="228" gradientUnits="userSpaceOnUse">
      <stop stop-color="#FFF7FD"/>
      <stop offset="1" stop-color="#F4F7FF"/>
    </linearGradient>
    <linearGradient id="db" x1="72" y1="54" x2="184" y2="202" gradientUnits="userSpaceOnUse">
      <stop stop-color="#1E293B"/>
      <stop offset="1" stop-color="#0F172A"/>
    </linearGradient>
    <linearGradient id="accent" x1="92" y1="72" x2="168" y2="186" gradientUnits="userSpaceOnUse">
      <stop stop-color="#B5179E"/>
      <stop offset="1" stop-color="#7B2CBF"/>
    </linearGradient>
    <filter id="shadow" x="-20%" y="-20%" width="140%" height="140%">
      <feDropShadow dx="0" dy="12" stdDeviation="14" flood-color="#0F172A" flood-opacity=".12"/>
    </filter>
  </defs>
  <rect width="256" height="256" rx="34" fill="url(#bg)"/>
  <circle cx="60" cy="58" r="22" fill="#DBEAFE"/>
  <circle cx="210" cy="56" r="18" fill="#FCE7F3"/>
  <circle cx="202" cy="204" r="26" fill="#E9D5FF"/>
  <g filter="url(#shadow)">
    <ellipse cx="128" cy="72" rx="58" ry="20" fill="url(#accent)"/>
    <path d="M70 72v72c0 11 26 20 58 20s58-9 58-20V72" fill="url(#db)"/>
    <path d="M70 108c0 11 26 20 58 20s58-9 58-20" stroke="#334155" stroke-width="2" opacity=".8"/>
    <path d="M70 144c0 11 26 20 58 20s58-9 58-20" stroke="#334155" stroke-width="2" opacity=".8"/>
    <ellipse cx="128" cy="144" rx="58" ry="20" fill="#111827" opacity=".96"/>
    <ellipse cx="128" cy="144" rx="58" ry="20" fill="#0F172A" opacity=".92"/>
    <ellipse cx="128" cy="180" rx="58" ry="20" fill="url(#accent)"/>
    <path d="M84 96h88" stroke="#E2E8F0" stroke-width="8" stroke-linecap="round"/>
    <path d="M84 132h88" stroke="#22D3EE" stroke-width="8" stroke-linecap="round" opacity=".92"/>
    <path d="M84 168h88" stroke="#F9A8D4" stroke-width="8" stroke-linecap="round" opacity=".92"/>
    <circle cx="96" cy="96" r="6" fill="#34D399"/>
    <circle cx="160" cy="96" r="6" fill="#60A5FA"/>
    <circle cx="96" cy="132" r="6" fill="#E879F9"/>
    <circle cx="160" cy="132" r="6" fill="#22D3EE"/>
    <circle cx="96" cy="168" r="6" fill="#F472B6"/>
    <circle cx="160" cy="168" r="6" fill="#A78BFA"/>
  </g>
</svg>
