<svg xmlns="http://www.w3.org/2000/svg" viewBox="0 0 256 256" fill="none">
  <defs>
    <linearGradient id="bg" x1="32" y1="24" x2="224" y2="232" gradientUnits="userSpaceOnUse">
      <stop stop-color="#FFF7FD"/>
      <stop offset="1" stop-color="#F5F3FF"/>
    </linearGradient>
    <linearGradient id="accent" x1="56" y1="52" x2="208" y2="204" gradientUnits="userSpaceOnUse">
      <stop stop-color="#B5179E"/>
      <stop offset="1" stop-color="#7B2CBF"/>
    </linearGradient>
    <linearGradient id="screen" x1="76" y1="78" x2="180" y2="178" gradientUnits="userSpaceOnUse">
      <stop stop-color="#1F2937"/>
      <stop offset="1" stop-color="#0F172A"/>
    </linearGradient>
    <filter id="shadow" x="-20%" y="-20%" width="140%" height="140%">
      <feDropShadow dx="0" dy="12" stdDeviation="14" flood-color="#7B2CBF" flood-opacity=".12"/>
    </filter>
  </defs>
  <rect x="0" y="0" width="256" height="256" rx="34" fill="url(#bg)"/>
  <circle cx="54" cy="52" r="28" fill="#FCE7F3"/>
  <circle cx="212" cy="48" r="20" fill="#E9D5FF"/>
  <circle cx="204" cy="206" r="26" fill="#FDE2E9"/>
  <g filter="url(#shadow)">
    <rect x="58" y="78" width="140" height="90" rx="14" fill="url(#screen)"/>
    <rect x="68" y="88" width="120" height="70" rx="10" fill="url(#accent)" opacity=".12"/>
    <rect x="72" y="92" width="44" height="10" rx="5" fill="#E879F9" opacity=".95"/>
    <rect x="72" y="110" width="58" height="8" rx="4" fill="#C4B5FD" opacity=".9"/>
    <rect x="72" y="124" width="84" height="8" rx="4" fill="#A78BFA" opacity=".75"/>
    <rect x="72" y="138" width="70" height="8" rx="4" fill="#F9A8D4" opacity=".9"/>
    <rect x="162" y="94" width="18" height="36" rx="9" fill="#22D3EE" opacity=".95"/>
    <circle cx="172" cy="138" r="8" fill="#60A5FA"/>
    <path d="M80 186h96" stroke="#CBD5E1" stroke-width="8" stroke-linecap="round"/>
    <path d="M88 190h80" stroke="#7B2CBF" stroke-width="8" stroke-linecap="round"/>
    <rect x="86" y="188" width="84" height="16" rx="8" fill="#111827"/>
    <circle cx="128" cy="126" r="18" fill="#fff" opacity=".96"/>
    <path d="M120 126l6 6 10-14" stroke="#B5179E" stroke-width="5" stroke-linecap="round" stroke-linejoin="round"/>
  </g>
  <path d="M76 68c18-18 86-18 104 0" stroke="#F472B6" stroke-width="6" stroke-linecap="round" opacity=".45"/>
</svg>
